<svg id="Layer_1" data-name="Layer 1" xmlns="http://www.w3.org/2000/svg" viewBox="0 0 72 71.95"><defs><style>.cls-1{fill:#d5af34;}.cls-2{fill:#fedf00;}</style></defs><path class="cls-1" d="M0,38.94V33a1,1,0,0,0,.14-.28c.41-2.17.65-4.39,1.25-6.52A35.84,35.84,0,0,1,41.6.48,34.78,34.78,0,0,1,64.89,14.61,34.86,34.86,0,0,1,71.5,41.76a35,35,0,0,1-9.45,19A35.45,35.45,0,0,1,41.23,71.56L38.52,72H33.18c-.44-.09-.88-.22-1.32-.27A34.69,34.69,0,0,1,17.12,66.6,35.57,35.57,0,0,1,.41,41.3C.28,40.52.14,39.73,0,38.94ZM36,55.23A19.24,19.24,0,1,0,16.75,36,19.31,19.31,0,0,0,36,55.23ZM30,12.71a23.75,23.75,0,0,1,11.9,0V5.41a30.36,30.36,0,0,0-11.9,0ZM42,59.27a23.71,23.71,0,0,1-11.89,0v7.28a30.5,30.5,0,0,0,11.89,0ZM12.18,56.05l6.28-3.63A24.34,24.34,0,0,1,12.7,41.93L6.35,45.6A31,31,0,0,0,12.18,56.05ZM65.63,45.59l-6.35-3.66a24.37,24.37,0,0,1-5.76,10.49l6.29,3.63A31.2,31.2,0,0,0,65.63,45.59ZM12.89,15.14A31.18,31.18,0,0,0,6.72,25.4L13,29A24.15,24.15,0,0,1,19.2,18.79Zm46.21,0-6.32,3.64A24.4,24.4,0,0,1,59,29l6.26-3.61A31.44,31.44,0,0,0,59.1,15.15Z" transform="translate(0 -0.02)"/><path class="cls-2" d="M36,55.23A19.24,19.24,0,1,1,55.23,36,19.32,19.32,0,0,1,36,55.23Zm-1.9-8.09c0,.29,0,.59,0,.89a7.93,7.93,0,0,0,.08,1,1.75,1.75,0,0,0,3.37.21,3.69,3.69,0,0,0,.13-1.1c0-1.27,0-1.27,1.22-1.63.24-.08.49-.16.72-.26a6.45,6.45,0,0,0,4.4-5.4,6,6,0,0,0-3.6-6.44c-1-.51-2.11-.87-3.15-1.35a16.89,16.89,0,0,1-2.82-1.5,1.62,1.62,0,0,1,.33-2.85,3.67,3.67,0,0,1,.92-.3,9.9,9.9,0,0,1,4.36.37,2,2,0,0,0,2.58-2,2.12,2.12,0,0,0-1.79-2.12c-1-.2-2-.32-3-.48,0-.46,0-.93,0-1.39A1.77,1.77,0,0,0,36,21.07a1.7,1.7,0,0,0-1.71,1.68c0,.55,0,1.12,0,1.56-1.06.45-2.09.79-3,1.3a5.85,5.85,0,0,0-.21,10.21c1.17.7,2.5,1.13,3.73,1.72a15.94,15.94,0,0,1,3,1.6,1.86,1.86,0,0,1-.49,3.21,4.56,4.56,0,0,1-1.4.39,11.34,11.34,0,0,1-4.83-.6,2,2,0,0,0-2.67,2.09,2.32,2.32,0,0,0,1.81,2.15C31.45,46.67,32.72,46.88,34.07,47.14Z" transform="translate(0 -0.02)"/><path class="cls-2" d="M30,12.71V5.42a30.36,30.36,0,0,1,11.9,0V12.7A23.75,23.75,0,0,0,30,12.71Z" transform="translate(0 -0.02)"/><path class="cls-2" d="M42,59.27v7.3a30.5,30.5,0,0,1-11.89,0V59.29A23.71,23.71,0,0,0,42,59.27Z" transform="translate(0 -0.02)"/><path class="cls-2" d="M12.18,56.05A31,31,0,0,1,6.35,45.6l6.35-3.67a24.34,24.34,0,0,0,5.76,10.49Z" transform="translate(0 -0.02)"/><path class="cls-2" d="M65.63,45.59a31.2,31.2,0,0,1-5.82,10.46l-6.29-3.63a24.37,24.37,0,0,0,5.76-10.49Z" transform="translate(0 -0.02)"/><path class="cls-2" d="M12.89,15.14l6.31,3.65A24.15,24.15,0,0,0,13,29L6.72,25.4A31.18,31.18,0,0,1,12.89,15.14Z" transform="translate(0 -0.02)"/><path class="cls-2" d="M59.1,15.15A31.44,31.44,0,0,1,65.27,25.4L59,29a24.4,24.4,0,0,0-6.23-10.22Z" transform="translate(0 -0.02)"/><path class="cls-1" d="M34.07,47.14c-1.35-.26-2.62-.47-3.86-.76a2.32,2.32,0,0,1-1.81-2.15,2,2,0,0,1,2.67-2.09,11.34,11.34,0,0,0,4.83.6,4.56,4.56,0,0,0,1.4-.39,1.86,1.86,0,0,0,.49-3.21,15.94,15.94,0,0,0-3-1.6c-1.23-.59-2.56-1-3.73-1.72a5.85,5.85,0,0,1,.21-10.21c.93-.51,2-.85,3-1.3,0-.44,0-1,0-1.56A1.7,1.7,0,0,1,36,21.07a1.77,1.77,0,0,1,1.8,1.69c0,.46,0,.93,0,1.39,1,.16,2,.28,3,.48a2.12,2.12,0,0,1,1.79,2.12,2,2,0,0,1-2.58,2,9.9,9.9,0,0,0-4.36-.37,3.67,3.67,0,0,0-.92.3,1.62,1.62,0,0,0-.33,2.85A16.89,16.89,0,0,0,37.24,33c1,.48,2.13.84,3.15,1.35A6,6,0,0,1,44,40.83a6.45,6.45,0,0,1-4.4,5.4c-.23.1-.48.18-.72.26-1.21.36-1.2.36-1.22,1.63a3.69,3.69,0,0,1-.13,1.1A1.75,1.75,0,0,1,34.15,49a7.93,7.93,0,0,1-.08-1C34.06,47.73,34.07,47.43,34.07,47.14Z" transform="translate(0 -0.02)"/></svg>